<mxfile host="app.diagrams.net" agent="Mozilla/5.0 (Windows NT 10.0; Win64; x64) AppleWebKit/537.36 (KHTML, like Gecko) Chrome/132.0.0.0 YaBrowser/25.2.0.0 Safari/537.36" version="26.1.1">
  <diagram name="Страница — 1" id="KKmllC8yuUOeo-muvncK">
    <mxGraphModel dx="1469" dy="406" grid="1" gridSize="10" guides="1" tooltips="1" connect="1" arrows="1" fold="1" page="1" pageScale="1" pageWidth="827" pageHeight="1169" math="0" shadow="0">
      <root>
        <mxCell id="0" />
        <mxCell id="1" parent="0" />
        <mxCell id="DNXaHsyP4bz1j5rUmy31-14" value="" style="rounded=0;whiteSpace=wrap;html=1;dashed=1;" vertex="1" parent="1">
          <mxGeometry x="500" y="210" width="570" height="550" as="geometry" />
        </mxCell>
        <mxCell id="DNXaHsyP4bz1j5rUmy31-1" value="USER" style="shape=umlActor;verticalLabelPosition=bottom;verticalAlign=top;html=1;outlineConnect=0;" vertex="1" parent="1">
          <mxGeometry x="-80" y="290" width="30" height="60" as="geometry" />
        </mxCell>
        <mxCell id="DNXaHsyP4bz1j5rUmy31-11" value="" style="rounded=0;whiteSpace=wrap;html=1;dashed=1;" vertex="1" parent="1">
          <mxGeometry y="210" width="450" height="270" as="geometry" />
        </mxCell>
        <mxCell id="DNXaHsyP4bz1j5rUmy31-12" value="&lt;font style=&quot;font-size: 20px;&quot;&gt;&lt;b&gt;FRONTEND&lt;/b&gt;&lt;/font&gt;" style="text;html=1;align=center;verticalAlign=middle;whiteSpace=wrap;rounded=0;" vertex="1" parent="1">
          <mxGeometry x="240" y="220" width="60" height="30" as="geometry" />
        </mxCell>
        <mxCell id="DNXaHsyP4bz1j5rUmy31-13" value="Valuator Frontend" style="rounded=1;whiteSpace=wrap;html=1;" vertex="1" parent="1">
          <mxGeometry x="310" y="290" width="120" height="60" as="geometry" />
        </mxCell>
        <mxCell id="DNXaHsyP4bz1j5rUmy31-15" value="&lt;b&gt;&lt;font style=&quot;font-size: 20px;&quot;&gt;BACKEND&lt;/font&gt;&lt;/b&gt;" style="text;html=1;align=center;verticalAlign=middle;whiteSpace=wrap;rounded=0;" vertex="1" parent="1">
          <mxGeometry x="755" y="220" width="60" height="30" as="geometry" />
        </mxCell>
        <mxCell id="DNXaHsyP4bz1j5rUmy31-16" value="NGINX" style="rounded=1;whiteSpace=wrap;html=1;" vertex="1" parent="1">
          <mxGeometry x="160" y="290" width="65" height="60" as="geometry" />
        </mxCell>
        <mxCell id="DNXaHsyP4bz1j5rUmy31-19" value="БРАУЗЕР" style="rounded=1;whiteSpace=wrap;html=1;" vertex="1" parent="1">
          <mxGeometry x="20" y="290" width="70" height="60" as="geometry" />
        </mxCell>
        <mxCell id="DNXaHsyP4bz1j5rUmy31-33" style="edgeStyle=orthogonalEdgeStyle;rounded=0;orthogonalLoop=1;jettySize=auto;html=1;exitX=0.5;exitY=1;exitDx=0;exitDy=0;" edge="1" parent="1" source="DNXaHsyP4bz1j5rUmy31-21" target="DNXaHsyP4bz1j5rUmy31-31">
          <mxGeometry relative="1" as="geometry" />
        </mxCell>
        <mxCell id="DNXaHsyP4bz1j5rUmy31-51" value="AMQP" style="edgeLabel;html=1;align=center;verticalAlign=middle;resizable=0;points=[];" vertex="1" connectable="0" parent="DNXaHsyP4bz1j5rUmy31-33">
          <mxGeometry x="0.0657" y="1" relative="1" as="geometry">
            <mxPoint as="offset" />
          </mxGeometry>
        </mxCell>
        <mxCell id="DNXaHsyP4bz1j5rUmy31-21" value="Valuator Backend" style="rounded=1;whiteSpace=wrap;html=1;" vertex="1" parent="1">
          <mxGeometry x="520" y="290" width="120" height="60" as="geometry" />
        </mxCell>
        <mxCell id="DNXaHsyP4bz1j5rUmy31-24" value="REDIS" style="shape=cylinder3;whiteSpace=wrap;html=1;boundedLbl=1;backgroundOutline=1;size=15;" vertex="1" parent="1">
          <mxGeometry x="930" y="420" width="80" height="80" as="geometry" />
        </mxCell>
        <mxCell id="DNXaHsyP4bz1j5rUmy31-26" value="" style="endArrow=classic;startArrow=classic;html=1;rounded=0;entryX=0.5;entryY=0;entryDx=0;entryDy=0;entryPerimeter=0;exitX=1;exitY=0.5;exitDx=0;exitDy=0;edgeStyle=orthogonalEdgeStyle;" edge="1" parent="1" source="DNXaHsyP4bz1j5rUmy31-21" target="DNXaHsyP4bz1j5rUmy31-24">
          <mxGeometry width="50" height="50" relative="1" as="geometry">
            <mxPoint x="660" y="400" as="sourcePoint" />
            <mxPoint x="710" y="350" as="targetPoint" />
            <Array as="points">
              <mxPoint x="900" y="320" />
              <mxPoint x="900" y="390" />
              <mxPoint x="970" y="390" />
            </Array>
          </mxGeometry>
        </mxCell>
        <mxCell id="DNXaHsyP4bz1j5rUmy31-65" value="Redis Protocol" style="edgeLabel;html=1;align=center;verticalAlign=middle;resizable=0;points=[];" vertex="1" connectable="0" parent="DNXaHsyP4bz1j5rUmy31-26">
          <mxGeometry x="-0.1972" y="2" relative="1" as="geometry">
            <mxPoint as="offset" />
          </mxGeometry>
        </mxCell>
        <mxCell id="DNXaHsyP4bz1j5rUmy31-27" value="Exchange (FANOUT)&lt;br&gt;valuator.processing.rank" style="rounded=1;whiteSpace=wrap;html=1;" vertex="1" parent="1">
          <mxGeometry x="660" y="370" width="140" height="40" as="geometry" />
        </mxCell>
        <mxCell id="DNXaHsyP4bz1j5rUmy31-36" style="edgeStyle=orthogonalEdgeStyle;rounded=0;orthogonalLoop=1;jettySize=auto;html=1;exitX=0.5;exitY=1;exitDx=0;exitDy=0;exitPerimeter=0;entryX=0.5;entryY=0;entryDx=0;entryDy=0;" edge="1" parent="1" source="DNXaHsyP4bz1j5rUmy31-28" target="DNXaHsyP4bz1j5rUmy31-35">
          <mxGeometry relative="1" as="geometry" />
        </mxCell>
        <mxCell id="DNXaHsyP4bz1j5rUmy31-28" value="Queue" style="strokeWidth=2;html=1;shape=mxgraph.flowchart.direct_data;whiteSpace=wrap;" vertex="1" parent="1">
          <mxGeometry x="695" y="440" width="70" height="20" as="geometry" />
        </mxCell>
        <mxCell id="DNXaHsyP4bz1j5rUmy31-29" style="edgeStyle=orthogonalEdgeStyle;rounded=0;orthogonalLoop=1;jettySize=auto;html=1;exitX=0.75;exitY=1;exitDx=0;exitDy=0;entryX=0.463;entryY=0.015;entryDx=0;entryDy=0;entryPerimeter=0;" edge="1" parent="1" source="DNXaHsyP4bz1j5rUmy31-21" target="DNXaHsyP4bz1j5rUmy31-27">
          <mxGeometry relative="1" as="geometry">
            <Array as="points">
              <mxPoint x="610" y="360" />
              <mxPoint x="725" y="360" />
            </Array>
          </mxGeometry>
        </mxCell>
        <mxCell id="DNXaHsyP4bz1j5rUmy31-50" value="AMQP" style="edgeLabel;html=1;align=center;verticalAlign=middle;resizable=0;points=[];" vertex="1" connectable="0" parent="DNXaHsyP4bz1j5rUmy31-29">
          <mxGeometry x="0.1541" y="2" relative="1" as="geometry">
            <mxPoint as="offset" />
          </mxGeometry>
        </mxCell>
        <mxCell id="DNXaHsyP4bz1j5rUmy31-30" style="edgeStyle=orthogonalEdgeStyle;rounded=0;orthogonalLoop=1;jettySize=auto;html=1;exitX=0.5;exitY=1;exitDx=0;exitDy=0;entryX=0.5;entryY=0;entryDx=0;entryDy=0;entryPerimeter=0;" edge="1" parent="1" source="DNXaHsyP4bz1j5rUmy31-27" target="DNXaHsyP4bz1j5rUmy31-28">
          <mxGeometry relative="1" as="geometry" />
        </mxCell>
        <mxCell id="DNXaHsyP4bz1j5rUmy31-31" value="Exchange (TOPIC)&lt;br&gt;event" style="rounded=1;whiteSpace=wrap;html=1;" vertex="1" parent="1">
          <mxGeometry x="510" y="570" width="140" height="40" as="geometry" />
        </mxCell>
        <mxCell id="DNXaHsyP4bz1j5rUmy31-45" style="edgeStyle=orthogonalEdgeStyle;rounded=0;orthogonalLoop=1;jettySize=auto;html=1;exitX=1;exitY=0.5;exitDx=0;exitDy=0;exitPerimeter=0;entryX=0;entryY=0.5;entryDx=0;entryDy=0;" edge="1" parent="1" source="DNXaHsyP4bz1j5rUmy31-32" target="DNXaHsyP4bz1j5rUmy31-44">
          <mxGeometry relative="1" as="geometry" />
        </mxCell>
        <mxCell id="DNXaHsyP4bz1j5rUmy31-32" value="Queue" style="strokeWidth=2;html=1;shape=mxgraph.flowchart.direct_data;whiteSpace=wrap;" vertex="1" parent="1">
          <mxGeometry x="545" y="640" width="70" height="20" as="geometry" />
        </mxCell>
        <mxCell id="DNXaHsyP4bz1j5rUmy31-34" style="edgeStyle=orthogonalEdgeStyle;rounded=0;orthogonalLoop=1;jettySize=auto;html=1;exitX=0.5;exitY=1;exitDx=0;exitDy=0;entryX=0.5;entryY=0;entryDx=0;entryDy=0;entryPerimeter=0;" edge="1" parent="1" source="DNXaHsyP4bz1j5rUmy31-31" target="DNXaHsyP4bz1j5rUmy31-32">
          <mxGeometry relative="1" as="geometry" />
        </mxCell>
        <mxCell id="DNXaHsyP4bz1j5rUmy31-39" style="edgeStyle=orthogonalEdgeStyle;rounded=0;orthogonalLoop=1;jettySize=auto;html=1;exitX=0;exitY=0.5;exitDx=0;exitDy=0;entryX=0.75;entryY=0;entryDx=0;entryDy=0;" edge="1" parent="1" source="DNXaHsyP4bz1j5rUmy31-35" target="DNXaHsyP4bz1j5rUmy31-31">
          <mxGeometry relative="1" as="geometry" />
        </mxCell>
        <mxCell id="DNXaHsyP4bz1j5rUmy31-52" value="AMQP" style="edgeLabel;html=1;align=center;verticalAlign=middle;resizable=0;points=[];" vertex="1" connectable="0" parent="DNXaHsyP4bz1j5rUmy31-39">
          <mxGeometry x="-0.365" y="2" relative="1" as="geometry">
            <mxPoint as="offset" />
          </mxGeometry>
        </mxCell>
        <mxCell id="DNXaHsyP4bz1j5rUmy31-35" value="RankCalculator" style="rounded=1;whiteSpace=wrap;html=1;" vertex="1" parent="1">
          <mxGeometry x="670" y="500" width="120" height="60" as="geometry" />
        </mxCell>
        <mxCell id="DNXaHsyP4bz1j5rUmy31-40" value="&lt;font style=&quot;font-size: 6px;&quot;&gt;RoutingKey&lt;br&gt;log.SimilarityCalculated&lt;/font&gt;" style="text;html=1;align=center;verticalAlign=middle;whiteSpace=wrap;rounded=0;" vertex="1" parent="1">
          <mxGeometry x="520" y="410" width="50" height="20" as="geometry" />
        </mxCell>
        <mxCell id="DNXaHsyP4bz1j5rUmy31-43" value="&lt;font style=&quot;font-size: 6px;&quot;&gt;RoutingKey&lt;br&gt;log.RankCalculated&lt;/font&gt;" style="text;html=1;align=center;verticalAlign=middle;whiteSpace=wrap;rounded=0;" vertex="1" parent="1">
          <mxGeometry x="615" y="490" width="50" height="20" as="geometry" />
        </mxCell>
        <mxCell id="DNXaHsyP4bz1j5rUmy31-44" value="EventLogger" style="rounded=1;whiteSpace=wrap;html=1;" vertex="1" parent="1">
          <mxGeometry x="670" y="620" width="120" height="60" as="geometry" />
        </mxCell>
        <mxCell id="DNXaHsyP4bz1j5rUmy31-47" value="valuator.events" style="text;html=1;align=center;verticalAlign=middle;whiteSpace=wrap;rounded=0;" vertex="1" parent="1">
          <mxGeometry x="550" y="660" width="60" height="30" as="geometry" />
        </mxCell>
        <UserObject label="&lt;font style=&quot;font-size: 6px;&quot;&gt;valuator.processing.rank&lt;/font&gt;" link="valuator.processing.rank" id="DNXaHsyP4bz1j5rUmy31-48">
          <mxCell style="text;html=1;align=center;verticalAlign=middle;whiteSpace=wrap;rounded=0;" vertex="1" parent="1">
            <mxGeometry x="770" y="430" width="60" height="30" as="geometry" />
          </mxCell>
        </UserObject>
        <mxCell id="DNXaHsyP4bz1j5rUmy31-49" style="edgeStyle=orthogonalEdgeStyle;rounded=0;orthogonalLoop=1;jettySize=auto;html=1;" edge="1" parent="1" source="DNXaHsyP4bz1j5rUmy31-1" target="DNXaHsyP4bz1j5rUmy31-19">
          <mxGeometry relative="1" as="geometry" />
        </mxCell>
        <mxCell id="DNXaHsyP4bz1j5rUmy31-59" value="" style="endArrow=classic;startArrow=classic;html=1;rounded=0;exitX=1;exitY=0.5;exitDx=0;exitDy=0;entryX=0;entryY=0.5;entryDx=0;entryDy=0;" edge="1" parent="1" source="DNXaHsyP4bz1j5rUmy31-19" target="DNXaHsyP4bz1j5rUmy31-16">
          <mxGeometry width="50" height="50" relative="1" as="geometry">
            <mxPoint x="160" y="360" as="sourcePoint" />
            <mxPoint x="210" y="310" as="targetPoint" />
          </mxGeometry>
        </mxCell>
        <mxCell id="DNXaHsyP4bz1j5rUmy31-62" value="HTTP" style="edgeLabel;html=1;align=center;verticalAlign=middle;resizable=0;points=[];" vertex="1" connectable="0" parent="DNXaHsyP4bz1j5rUmy31-59">
          <mxGeometry x="0.0308" relative="1" as="geometry">
            <mxPoint as="offset" />
          </mxGeometry>
        </mxCell>
        <mxCell id="DNXaHsyP4bz1j5rUmy31-60" value="" style="endArrow=classic;startArrow=classic;html=1;rounded=0;exitX=1;exitY=0.5;exitDx=0;exitDy=0;entryX=0;entryY=0.5;entryDx=0;entryDy=0;" edge="1" parent="1" source="DNXaHsyP4bz1j5rUmy31-13" target="DNXaHsyP4bz1j5rUmy31-21">
          <mxGeometry width="50" height="50" relative="1" as="geometry">
            <mxPoint x="500" y="360" as="sourcePoint" />
            <mxPoint x="550" y="310" as="targetPoint" />
          </mxGeometry>
        </mxCell>
        <mxCell id="DNXaHsyP4bz1j5rUmy31-64" value="HTTP" style="edgeLabel;html=1;align=center;verticalAlign=middle;resizable=0;points=[];" vertex="1" connectable="0" parent="DNXaHsyP4bz1j5rUmy31-60">
          <mxGeometry x="0.1722" y="1" relative="1" as="geometry">
            <mxPoint as="offset" />
          </mxGeometry>
        </mxCell>
        <mxCell id="DNXaHsyP4bz1j5rUmy31-61" value="" style="endArrow=classic;startArrow=classic;html=1;rounded=0;exitX=1;exitY=0.5;exitDx=0;exitDy=0;entryX=0;entryY=0.5;entryDx=0;entryDy=0;" edge="1" parent="1" source="DNXaHsyP4bz1j5rUmy31-16" target="DNXaHsyP4bz1j5rUmy31-13">
          <mxGeometry width="50" height="50" relative="1" as="geometry">
            <mxPoint x="340" y="350" as="sourcePoint" />
            <mxPoint x="390" y="300" as="targetPoint" />
          </mxGeometry>
        </mxCell>
        <mxCell id="DNXaHsyP4bz1j5rUmy31-63" value="HTTP" style="edgeLabel;html=1;align=center;verticalAlign=middle;resizable=0;points=[];" vertex="1" connectable="0" parent="DNXaHsyP4bz1j5rUmy31-61">
          <mxGeometry x="0.0685" relative="1" as="geometry">
            <mxPoint as="offset" />
          </mxGeometry>
        </mxCell>
        <mxCell id="DNXaHsyP4bz1j5rUmy31-69" value="" style="endArrow=classic;startArrow=classic;html=1;rounded=0;exitX=1;exitY=0.5;exitDx=0;exitDy=0;entryX=0;entryY=0.5;entryDx=0;entryDy=0;entryPerimeter=0;edgeStyle=orthogonalEdgeStyle;" edge="1" parent="1" source="DNXaHsyP4bz1j5rUmy31-35" target="DNXaHsyP4bz1j5rUmy31-24">
          <mxGeometry width="50" height="50" relative="1" as="geometry">
            <mxPoint x="800" y="520" as="sourcePoint" />
            <mxPoint x="850" y="470" as="targetPoint" />
          </mxGeometry>
        </mxCell>
        <mxCell id="DNXaHsyP4bz1j5rUmy31-70" value="Redis Protocol" style="edgeLabel;html=1;align=center;verticalAlign=middle;resizable=0;points=[];" vertex="1" connectable="0" parent="DNXaHsyP4bz1j5rUmy31-69">
          <mxGeometry x="0.0454" y="1" relative="1" as="geometry">
            <mxPoint as="offset" />
          </mxGeometry>
        </mxCell>
      </root>
    </mxGraphModel>
  </diagram>
</mxfile>
